PathFileType	4	(X/Y/Z)	Patient4_TMGait_0pt3_02_left_01.trc.trc
DataRate	CameraRate	NumFrames	NumMarkers	Units	OrigDataRate	OrigDataStartFrame	OrigNumFrames
51.282051282051	51.282051282051	5	33	mm	51.282051282051	71	       141
Frame#	Time	Sacral			L.Shoulder			Chest			R.Shoulder			Neck			R.ASIS			L.ASIS			R.Thigh.Superior			R.Thigh.Lateral			R.Thigh.Inferior			R.Patella			L.Thigh.Superior			L.Thigh.Lateral			L.Thigh.Inferior			L.Patella			L.Shank.Superior			L.Shank.Lateral			L.Shank.Inferior			R.Shank.Superior			R.Shank.Lateral			R.Shank.Inferior			R.Heel			R.Midfoot.Superior			R.Midfoot.Lateral			R.Toe			L.Heel			L.Midfoot.Lateral			L.Midfoot.Superior			L.Toe			L.Elbow			L.Wrist			R.Elbow			R.Wrist			
		X1	Y1	Z1	X2	Y2	Z2	X3	Y3	Z3	X4	Y4	Z4	X5	Y5	Z5	X6	Y6	Z6	X7	Y7	Z7	X8	Y8	Z8	X9	Y9	Z9	X10	Y10	Z10	X11	Y11	Z11	X12	Y12	Z12	X13	Y13	Z13	X14	Y14	Z14	X15	Y15	Z15	X16	Y16	Z16	X17	Y17	Z17	X18	Y18	Z18	X19	Y19	Z19	X20	Y20	Z20	X21	Y21	Z21	X22	Y22	Z22	X23	Y23	Z23	X24	Y24	Z24	X25	Y25	Z25	X26	Y26	Z26	X27	Y27	Z27	X28	Y28	Z28	X29	Y29	Z29	X30	Y30	Z30	X31	Y31	Z31	X32	Y32	Z32	X33	Y33	Z33	

71	2.555000000000	687.705485493403	1007.605211413995	405.779451307281	932.388444243670	1438.923700901549	281.238756926086	983.229044125942	1357.367272340976	459.524433657864	858.557068946346	1428.789259781862	607.679034588467	875.328106922424	1493.092366277796	434.519882111457	891.630780350339	945.965935027614	568.153960049867	928.346889372825	957.160331413732	295.466489780331	971.655047418177	772.745970104687	543.055673040377	923.047841854137	652.339047362205	610.597386802232	1013.811840819154	611.669746502148	535.587289470717	1042.602267632213	521.126532023197	558.778675996077	947.683909725185	732.422942518713	335.938393690187	853.832257669345	621.008566087177	271.077561438142	918.833172749130	539.842529833077	349.309107277664	910.415956110667	469.803562268170	360.458914457023	871.934395828001	400.901941466424	351.316448963662	771.545299803544	297.583043712678	297.852570611131	797.194687575161	184.049892834291	375.952990838960	1007.325970632142	432.824974587104	570.033556225533	927.629054695213	335.631562034157	632.795069807330	978.902134391686	235.809830641875	587.300318605081	851.639812192985	65.043496920193	559.327018138078	1019.923409283439	120.926136735025	606.401094102430	932.568878589451	53.887489874810	636.111531950969	1137.891105377360	71.804634022020	637.115405497437	649.462640175702	39.093950138404	415.193752545349	724.808057001204	35.971535275164	336.246632125052	809.361874320545	94.963941795748	365.515655598693	937.045568935733	40.022540277645	337.475346654171	1033.988517308018	1128.610834607442	121.582367462208	1265.165697448763	1016.816349159094	169.298195254785	692.681957835396	1112.037854945918	674.565716393469	663.498732725901	852.594263050606	688.236084844272	
72	2.574500000000	688.224539278134	1007.882444419957	406.249599579850	935.629855543035	1438.750258159128	285.447870932835	983.888276579680	1356.811872814339	464.220330719384	857.662669135164	1428.689920286044	610.838511108547	876.587290007352	1492.856741408590	438.035269091061	890.194127649391	945.235742784084	571.197501948773	929.749980914368	957.009947043916	298.678789869322	968.576063204373	771.014311518656	547.201568092916	917.629377124164	650.804368425766	613.527492929540	1009.073711408735	610.091418908577	539.589576763907	1037.652497117682	522.274270708528	561.569890181027	945.074703985525	731.217110093915	338.226364935559	850.027128755717	621.481779594042	271.546588655170	912.796189272463	539.126731820514	349.837834977942	903.097060223858	469.567889049948	360.648758009893	865.288750856652	401.072261584209	351.265633909351	765.216552743873	297.539577410352	297.591562342026	790.946305216721	184.076972981918	375.874428609151	1007.419183281178	433.196190613200	572.689466918113	933.477390787679	331.171453614121	635.722064045155	990.522359517380	234.267304805518	589.770090359421	872.441556187980	57.177576517170	562.053668125351	1038.560553279644	119.994231962710	607.818667915403	954.626557227316	48.718312866914	637.928211093987	1159.532709710628	76.146710199648	637.364781112455	643.515509642645	38.913885957166	415.134372461621	718.848812143608	35.837577395848	336.188899121995	803.362163632155	94.923852754522	365.480063100556	931.094199520899	40.036456578836	337.537212037285	1042.705459926496	1131.654868440636	125.064887543218	1278.811691384282	1031.799683079129	173.476033717607	684.896713810501	1115.764512888067	673.805412028348	651.036106497675	856.731676311622	685.909514660467	
73	2.594000000000	689.095824854617	1007.503034628173	407.293233628301	938.349365934980	1438.057518263267	289.769068391345	984.530058840173	1355.895996153348	468.918574387046	857.094498652170	1428.153406115436	614.296320214092	877.708705650237	1492.152222248100	441.766868832262	889.365363668176	943.874167532745	574.395453629610	931.379802394282	956.437436395817	302.023442232620	966.011937404863	768.489413061287	551.578542587973	912.396942313888	648.471919557946	616.397296687480	1004.652436762104	607.770648570096	543.630592228371	1032.501231555175	522.297909951578	564.292147341558	943.113717318549	729.802824209251	340.583303031920	846.879721551343	621.660524143667	272.217844527396	907.557103846426	538.192829551601	350.468166491574	896.627900425796	469.054614289487	360.961681628435	859.336796745077	400.936560695782	351.367944538665	759.333174599440	297.419375929816	297.443478599576	784.913337993970	183.946796521739	375.843142299983	1006.702747161306	432.654655533091	575.248150166490	937.634427965588	326.769224665803	638.140961506127	999.562323452233	232.592397218387	591.883091533078	889.370636128366	51.107948694698	563.905260748227	1053.460934795713	118.871136365496	608.923758666087	972.232055590213	44.681250782566	639.198556807562	1176.483504391914	79.070365548092	637.818108700253	637.559828820424	38.710124472939	415.073627337885	712.892594503069	35.687854122248	336.129285743037	797.354218090614	94.864613470987	365.464390579475	925.144979173898	40.034369573651	337.594829985939	1050.787684238183	1133.942976215844	129.103909205337	1291.108971288295	1045.665778488824	177.869775966223	678.989407216213	1118.414557806385	673.685387814549	641.715463431632	859.695642026907	684.282596885047	
74	2.613500000000	690.347448001788	1006.588717732472	408.934379308520	940.568876038341	1436.990235666674	294.203210456688	985.183944461844	1354.758044724923	473.634124788112	856.837762996616	1427.280646836616	618.068014708154	878.686380575098	1491.094668784063	445.729521270562	889.201606526323	942.045173960841	577.747860277568	933.277368913517	955.551890027406	305.508572187915	964.130787632396	765.408324040857	556.059707982589	907.625880915892	645.557616072422	619.109171460114	1000.774701273599	604.942759149672	547.559264102029	1027.440972726880	521.338769146153	566.828532233210	941.842643567942	728.225866454190	343.006579239665	844.366118995070	621.600456965015	273.156551871374	903.118491897352	537.079720220901	351.249278745243	891.023871537477	468.299539362678	361.454876204816	854.064389878757	400.544941449447	351.665990340313	753.870224532124	297.285858770176	297.440897436784	779.090903621067	183.702026770596	375.864155656919	1005.363724288498	431.289953266993	577.602173764157	940.147965348758	322.487691966461	640.018532377832	1005.963934272640	230.698133544725	593.560283476864	902.025854647701	46.667950623554	564.911988089526	1064.468336648267	117.415804886763	609.669145807610	985.070334537185	41.629631704671	639.969416230913	1188.662010144036	80.303171778487	638.406137658438	631.596284238992	38.512248663049	415.000563136944	706.944496288963	35.536328813146	336.065985507469	791.347503406759	94.798344251330	365.458198837324	919.202475744941	40.012306062914	337.643348214118	1058.154989733601	1135.575686621016	133.638021909121	1302.025650156327	1058.346788586621	182.457918155854	674.963546695372	1119.977155402746	674.301327930788	635.434579020540	861.433187391555	683.473342273045	
75	2.633000000000	691.985768584705	1005.305544760394	411.179088619388	942.354118697206	1435.715755735167	298.755057057653	985.895217057901	1353.547969898803	478.387389102315	856.883081251324	1426.199760581800	622.155057963549	879.538509314852	1489.825777155141	449.930963581899	889.722372484548	939.952267861991	581.265034921686	935.460402299385	954.483295988028	309.153647587319	963.052983599006	762.038520594687	560.523139918192	903.568133421392	642.324808312665	621.611670830287	997.620017079389	601.865352166069	551.249116147428	1022.747000527025	519.602129848472	569.096405597161	941.251238856126	726.549284306551	345.504834007239	842.430100481506	621.379987013301	274.422726442319	899.448679292994	535.847008230991	352.228586365018	886.267200356282	467.357042261843	362.175990348188	849.431435349081	399.970269663625	352.193523188367	748.787247286638	297.218139240477	297.613683266629	773.470756120875	183.402889586820	375.938756012959	1003.624079374549	429.260622428461	579.672867817291	941.201755930442	318.410834921992	641.387725120508	1009.851098551787	228.556726305953	594.758936846648	910.324586753955	43.638288710786	565.175945269771	1071.678549838910	115.564955577417	610.022924020597	993.174262467679	39.412694026773	640.321119556069	1196.281770064007	79.769400217683	639.017686273309	625.629111070088	38.367991531335	414.903165920972	701.012418910903	35.405626267622	335.997235808400	785.359243851471	94.741466069388	365.447699039131	913.273420229850	39.965923390341	337.677628149520	1064.752975510745	1136.685008964120	138.583231150782	1311.561492271354	1069.819547250434	187.215317079332	672.777085431382	1120.513155011027	675.723764137563	632.041255235961	861.990328340060	683.598200071053	
